<svg width="640" height="460" viewBox="0 0 640 460" fill="none" xmlns="http://www.w3.org/2000/svg">
  <defs>
    <linearGradient id="bg" x1="0" y1="0" x2="640" y2="460" gradientUnits="userSpaceOnUse">
      <stop stop-color="#EFF6FF"/>
      <stop offset="1" stop-color="#DBEAFE"/>
    </linearGradient>
    <linearGradient id="card" x1="0" y1="0" x2="400" y2="220" gradientUnits="userSpaceOnUse">
      <stop stop-color="#2563EB"/>
      <stop offset="1" stop-color="#1D4ED8"/>
    </linearGradient>
  </defs>

  <rect width="640" height="460" rx="26" fill="url(#bg)"/>

  <circle cx="540" cy="90" r="42" fill="#BFDBFE"/>
  <circle cx="96" cy="110" r="28" fill="#DBEAFE"/>
  <circle cx="560" cy="380" r="22" fill="#BFDBFE"/>

  <rect x="190" y="80" width="260" height="160" rx="18" fill="url(#card)"/>
  <rect x="212" y="108" width="92" height="10" rx="5" fill="#93C5FD"/>
  <rect x="212" y="126" width="166" height="10" rx="5" fill="#DBEAFE"/>
  <rect x="212" y="150" width="216" height="68" rx="12" fill="#FFFFFF"/>
  <rect x="224" y="164" width="84" height="8" rx="4" fill="#93C5FD"/>
  <rect x="224" y="178" width="156" height="8" rx="4" fill="#DBEAFE"/>
  <rect x="224" y="192" width="122" height="8" rx="4" fill="#DBEAFE"/>

  <rect x="70" y="250" width="182" height="118" rx="14" fill="#FFFFFF"/>
  <rect x="90" y="276" width="84" height="10" rx="5" fill="#93C5FD"/>
  <rect x="90" y="298" width="136" height="8" rx="4" fill="#E5E7EB"/>
  <rect x="90" y="314" width="116" height="8" rx="4" fill="#E5E7EB"/>
  <circle cx="208" cy="280" r="14" fill="#22C55E"/>
  <path d="M201 280L206 285L215 275" stroke="white" stroke-width="2.6" stroke-linecap="round" stroke-linejoin="round"/>

  <rect x="396" y="270" width="176" height="102" rx="14" fill="#FFFFFF"/>
  <rect x="416" y="292" width="78" height="10" rx="5" fill="#FCD34D"/>
  <rect x="416" y="312" width="132" height="8" rx="4" fill="#E5E7EB"/>
  <rect x="416" y="328" width="102" height="8" rx="4" fill="#E5E7EB"/>
  <path d="M518 300C518 292 524 286 532 286C540 286 546 292 546 300C546 308 540 314 532 314C524 314 518 308 518 300Z" fill="#2563EB"/>
  <path d="M532 292V308M524 300H540" stroke="white" stroke-width="2.6" stroke-linecap="round"/>
</svg>
